PathFileType	4	(X/Y/Z)	s08c0303.trc
DataRate	CameraRate	NumFrames	NumMarkers	Units	OrigDataRate	OrigDataStartFrame	OrigNumFrames
200	200	5	50	mm	200	0	2000
Frame#	Time	racr			lacr			c7			jug			rlel			rdr			llel			ldr			s2			lic			ric			lasi			rasi			rpsi			lpsi			rgt			lgt			rth1			rth2			rth3			rth4			rlfc			rmfc			rsh1			rsh2			rsh3			rsh4			rlmal			rmmal			rcal			rtoe			rmt5			lth1			lth2			lth4			lth3			llfc			lmfc			llmal			lmmal			lcal			lmt5			lsh1			lsh2			lsh3			lsh4			ltoe			SBIKE			LBIKE			RBIKE			
		X1	Y1	Z1	X2	Y2	Z2	X3	Y3	Z3	X4	Y4	Z4	X5	Y5	Z5	X6	Y6	Z6	X7	Y7	Z7	X8	Y8	Z8	X9	Y9	Z9	X10	Y10	Z10	X11	Y11	Z11	X12	Y12	Z12	X13	Y13	Z13	X14	Y14	Z14	X15	Y15	Z15	X16	Y16	Z16	X17	Y17	Z17	X18	Y18	Z18	X19	Y19	Z19	X20	Y20	Z20	X21	Y21	Z21	X22	Y22	Z22	X23	Y23	Z23	X24	Y24	Z24	X25	Y25	Z25	X26	Y26	Z26	X27	Y27	Z27	X28	Y28	Z28	X29	Y29	Z29	X30	Y30	Z30	X31	Y31	Z31	X32	Y32	Z32	X33	Y33	Z33	X34	Y34	Z34	X35	Y35	Z35	X36	Y36	Z36	X37	Y37	Z37	X38	Y38	Z38	X39	Y39	Z39	X40	Y40	Z40	X41	Y41	Z41	X42	Y42	Z42	X43	Y43	Z43	X44	Y44	Z44	X45	Y45	Z45	X46	Y46	Z46	X47	Y47	Z47	X48	Y48	Z48	X49	Y49	Z49	X50	Y50	Z50	
0	0.0000	487.704996	1349.134625	-66.188868	506.062444	1357.003438	-436.040207	470.321053	1424.808047	-247.295280	456.165353	1268.600075	-236.259841	574.175442	1112.900649	-1.358463	776.735176	887.960169	-73.597492	592.753633	1115.125654	-478.951108	780.811140	886.106379	-415.685095	-86.949883	1206.103711	-250.104198	89.549575	1160.305243	-387.948996	78.983567	1202.422953	-84.918121	108.715278	1114.364174	-381.988584	85.003540	1150.437691	-115.115679	-50.271434	1247.804100	-201.217786	-44.514802	1239.996076	-296.736005	-15.781515	1120.717372	-36.117036	-1.027377	1058.862288	-423.698243	128.312786	1035.694539	-33.995175	215.851153	1020.793137	-34.447900	282.440185	964.390904	-36.362469	229.856753	1052.905421	-48.276633	384.039056	897.936944	-57.211665	369.219072	888.556644	-171.497418	325.081629	781.524889	-29.627186	322.295257	693.140343	-49.846477	276.116864	620.524274	-56.129348	348.425853	691.067010	-83.145212	233.337693	510.422049	-68.231767	248.897321	534.679654	-155.276717	156.300999	470.328000	-112.187341	453.774588	503.868046	-109.197009	369.989579	460.667305	-42.808171	52.570644	933.740723	-436.259406	111.427264	868.822837	-433.917512	143.247186	884.718829	-424.770252	128.913033	781.856375	-433.540142	200.280813	673.881863	-423.879737	169.057449	639.115278	-304.695413	26.876094	270.978982	-400.508188	54.659247	288.139941	-314.743142	-42.057816	246.141583	-359.434397	161.781584	180.701626	-420.021514	128.620085	541.021197	-430.367967	118.833662	457.811623	-410.130531	71.108187	384.111506	-412.957178	138.314264	455.674755	-376.278297	244.327075	207.865066	-351.201904	-214.122839	914.043722	-238.548926	-10.141552	79.847129	-427.678841	-10.734697	80.008798	-29.151788	
1	0.0050	487.714435	1349.127854	-66.240720	506.060390	1356.960012	-436.036513	470.231900	1424.791758	-247.301927	456.080117	1268.525660	-236.283830	574.162441	1112.886690	-1.348743	776.746575	887.973638	-73.599936	592.698199	1115.085598	-478.953088	780.826372	886.112759	-415.718570	-87.012604	1206.099992	-250.126145	89.462856	1160.305464	-387.966795	78.920890	1202.422990	-84.913661	108.649775	1114.287360	-381.992429	84.962377	1150.415765	-115.109923	-50.373640	1247.750043	-201.155511	-44.631375	1240.060115	-296.801717	-15.840516	1120.730993	-36.108266	-1.112372	1058.877037	-423.715897	128.261198	1035.704263	-33.985324	215.525686	1021.058226	-34.603241	282.382513	964.417258	-36.371578	229.821147	1052.926814	-48.287808	383.990625	897.975679	-57.221813	369.148157	888.571399	-171.476997	325.038499	781.543202	-29.604494	322.303303	693.146938	-49.838535	276.136620	620.527743	-56.108072	348.406689	691.077936	-83.145074	233.384761	510.407995	-68.222556	248.915584	534.697234	-155.298842	156.312251	470.322964	-112.191186	453.807191	503.866689	-109.209983	369.997069	460.715658	-42.757921	52.508019	933.761931	-436.255860	111.349248	868.833207	-433.933129	143.164589	884.732864	-424.770641	128.816206	781.862362	-433.539491	200.127217	673.871826	-423.860715	168.934899	639.124944	-304.662829	26.811061	270.990061	-400.511838	54.413100	288.292178	-314.662818	-42.108465	246.104874	-359.449008	161.741946	180.739131	-420.031001	128.536393	541.021015	-430.367836	118.766495	457.791445	-410.131348	71.031075	384.133956	-412.973540	138.236070	455.700166	-376.245907	244.276932	207.929756	-351.210266	-214.102152	914.034624	-238.452282	-10.162235	79.907661	-427.687232	-10.694319	79.985894	-29.157386	
2	0.0100	487.720746	1349.114920	-66.299842	506.091742	1356.922104	-436.029564	470.142055	1424.787409	-247.341155	456.046431	1268.464883	-236.297085	574.125740	1112.864847	-1.303020	776.716517	887.978238	-73.604611	592.642224	1115.023057	-478.973162	780.815049	886.122666	-415.723615	-87.127701	1206.096365	-250.106897	89.371131	1160.295896	-387.972458	78.833140	1202.392005	-84.896163	108.588991	1114.376894	-382.060256	84.886088	1150.408361	-115.134737	-50.459855	1247.745469	-201.147577	-44.722209	1240.061581	-296.801556	-15.890943	1120.718939	-36.119417	-1.175618	1058.883388	-423.715399	128.215879	1035.713661	-33.985551	215.475790	1021.065184	-34.610715	282.369261	964.408583	-36.372643	229.761180	1052.948316	-48.285726	383.945059	897.981085	-57.217531	369.718348	885.823760	-164.364423	325.020826	781.539841	-29.605002	322.295793	693.158894	-49.824455	276.138224	620.525245	-56.115043	348.410286	691.092779	-83.136176	233.400844	510.406293	-68.203050	248.916308	534.699277	-155.302754	156.339341	470.334015	-112.175797	453.818960	503.818165	-109.206319	370.009851	460.708329	-42.758510	52.432948	933.770344	-436.249658	111.276074	868.822786	-433.916287	143.081736	884.718581	-424.755751	128.738791	781.846942	-433.499448	199.973985	673.842879	-423.810319	168.842271	639.135019	-304.647345	26.747080	270.966135	-400.526744	54.548783	288.109921	-314.749436	-42.166740	246.053975	-359.446609	161.697059	180.759580	-420.023287	128.446969	541.014571	-430.349734	118.700050	457.786616	-410.102325	70.951143	384.134252	-412.978442	138.177543	455.679173	-376.271676	244.242196	207.989697	-351.202267	-214.112959	914.026098	-238.472302	-10.159852	79.908606	-427.675200	-10.697398	80.002938	-29.174190	
3	0.0150	488.140196	1349.101301	-67.384557	507.138703	1357.096859	-433.644130	470.189083	1424.920241	-247.473294	455.997073	1268.411411	-236.327635	574.814988	1112.595899	0.591964	773.458298	887.734059	-73.878395	591.787439	1115.850611	-482.361297	780.797661	886.145256	-415.722805	-87.207018	1206.088813	-250.104888	89.264083	1160.275882	-388.001653	78.654298	1202.264660	-84.854400	111.341700	1113.406510	-377.447398	84.791438	1150.416637	-115.077910	-50.520778	1246.793274	-201.317741	-44.459328	1239.790534	-296.748012	-15.953873	1120.701697	-36.108121	-0.952589	1058.692949	-422.759963	128.427767	1035.634369	-33.978906	215.435706	1021.110043	-34.618328	282.341608	964.568688	-36.408704	230.607406	1052.569721	-47.111617	383.979050	898.071712	-57.913838	369.045750	888.614864	-171.476006	325.135067	781.603016	-29.544725	322.211953	693.388655	-50.172706	274.986840	620.790516	-57.152386	350.661374	694.481692	-88.801615	233.291535	510.451059	-67.938124	248.018654	535.218534	-154.686181	156.369995	470.337878	-112.166164	453.855131	503.793354	-109.195234	369.383834	460.190176	-42.679464	52.663616	933.710764	-435.451079	110.464159	869.941213	-436.522205	143.616177	887.192014	-430.221035	128.311923	782.874696	-435.183075	192.212413	672.124425	-424.506509	168.727395	639.131240	-304.631760	27.225835	270.040061	-399.135152	54.498502	288.090006	-314.755427	-42.223458	246.021367	-359.450259	161.671992	180.774467	-420.035093	128.540803	540.912304	-430.092273	118.771682	457.827711	-410.103782	70.883746	384.130582	-412.986809	137.637045	456.421748	-378.825048	243.396045	209.213545	-352.769682	-214.098797	914.016680	-238.369968	-10.160114	79.901019	-427.684933	-10.700040	80.005984	-29.157182	
4	0.0200	488.808122	1350.876438	-69.119636	511.195723	1357.707596	-433.103712	470.130268	1424.855800	-247.561530	456.097297	1267.994936	-236.294146	572.880908	1113.099748	-2.778174	781.572967	887.542696	-69.314090	590.556001	1116.866945	-485.577853	780.922807	886.184843	-415.651035	-87.245264	1206.124944	-250.105156	89.180912	1160.120570	-388.036302	78.665615	1202.841250	-85.565517	108.850970	1112.794316	-382.500905	84.723328	1150.269301	-115.062644	-50.743961	1247.613019	-201.103190	-44.370910	1239.715390	-296.906135	-16.015227	1120.786004	-36.053770	-3.849173	1059.150256	-425.282228	128.399497	1035.679234	-33.985904	214.986377	1021.548400	-34.931934	282.363414	964.574938	-36.517821	230.602402	1052.656200	-47.194751	383.535306	899.652106	-61.477514	372.326075	890.865461	-181.701600	325.148504	781.640110	-29.524161	321.862159	693.361126	-50.785741	274.413954	620.936800	-58.507244	350.369162	694.876013	-89.253349	232.214302	511.149072	-69.655269	248.959400	538.861115	-163.564549	156.485679	470.297106	-112.147422	453.870272	503.787575	-109.252658	369.402040	460.207489	-42.667085	49.519487	934.482681	-438.021387	108.223183	870.517496	-437.883817	142.825179	888.256661	-432.730876	126.140153	783.405637	-436.513928	185.153068	669.695140	-421.878862	167.432119	639.778506	-306.195155	27.053402	270.017162	-399.009455	54.006234	288.361960	-314.682897	-42.279433	245.956200	-359.360259	161.596308	180.670154	-420.063613	128.544467	540.987074	-430.211596	118.783971	457.807796	-410.079739	70.599269	384.074476	-412.727012	135.930524	456.275182	-380.546438	241.717506	210.425575	-354.339829	-214.505975	914.017149	-238.095854	-11.499268	81.843720	-429.626572	-10.679963	79.894508	-29.265983	
